<?xml version="1.0" encoding="UTF-8"?>

<svg width="77mm" height="34mm" version="1.1" viewBox="0 0 77 34" xmlns="http://www.w3.org/2000/svg">
 <defs>
  <clipPath id="clipPath4029">
   <rect x="39.302" y="-23.741" width="24.557" height="19.782" rx="2.6299" ry="1.8609" d="m 41.931442,-23.740818 h 19.297045 c 1.456953,0 2.629879,0.82995 2.629879,1.860875 v 16.0598762 c 0,1.0309245 -1.172926,1.8608745 -2.629879,1.8608745 H 41.931442 c -1.456953,0 -2.629879,-0.82995 -2.629879,-1.8608745 V -21.879943 c 0,-1.030925 1.172926,-1.860875 2.629879,-1.860875 z" display="none" fill="none" stroke="#FFF" stroke-linecap="round" stroke-linejoin="round" stroke-width="2.2"/>
   <path class="powerclip" d="m30.57-32.337h36.757v31.982h-36.757zm11.362 8.5961c-1.457 0-2.6299 0.82995-2.6299 1.8609v16.06c0 1.0309 1.1729 1.8609 2.6299 1.8609h19.297c1.457 0 2.6299-0.82995 2.6299-1.8609v-16.06c0-1.0309-1.1729-1.8609-2.6299-1.8609z" fill="none" stroke="#FFF" stroke-linecap="round" stroke-linejoin="round" stroke-width="2.2"/>
  </clipPath>
  <clipPath id="clipath_lpe_path-effect4041">
   <rect x="39.302" y="-23.741" width="24.557" height="19.782" rx="2.6299" ry="1.8609" d="m 41.931442,-23.740818 h 19.297045 c 1.456953,0 2.629879,0.82995 2.629879,1.860875 v 16.0598762 c 0,1.0309245 -1.172926,1.8608745 -2.629879,1.8608745 H 41.931442 c -1.456953,0 -2.629879,-0.82995 -2.629879,-1.8608745 V -21.879943 c 0,-1.030925 1.172926,-1.860875 2.629879,-1.860875 z" display="none" fill="none" stroke="#FFF" stroke-linecap="round" stroke-linejoin="round" stroke-width="2.2"/>
   <path class="powerclip" d="m30.57-32.337h36.757v31.982h-36.757zm11.362 8.5961c-1.457 0-2.6299 0.82995-2.6299 1.8609v16.06c0 1.0309 1.1729 1.8609 2.6299 1.8609h19.297c1.457 0 2.6299-0.82995 2.6299-1.8609v-16.06c0-1.0309-1.1729-1.8609-2.6299-1.8609z" fill="none" stroke="#FFF" stroke-linecap="round" stroke-linejoin="round" stroke-width="2.2"/>
  </clipPath>
 </defs>
 <g stroke-linecap="round">
  <path transform="matrix(.70175 0 0 .70175 -20.512 -14.331)" d="m51.011 31.181h-12.952c-3.1644 2e-3 -11.317 21.586-3.8145 32.241 0.88052 1.2504 2.0052 3.1858 3.3218 3.2471h13.446m0.0013-35.488h12.952c3.1644 2e-3 11.317 21.586 3.8145 32.241-0.88052 1.2504-2.0052 3.1858-3.3218 3.2471h-13.446" fill="none" stroke="#FFF" stroke-linejoin="round" stroke-width="3.5625"/>
  <path d="m9.495 7.1978a5.7906 5.7906 0 0 1 5.7906-5.7906 5.7906 5.7906 0 0 1 5.7906 5.7906" fill-opacity="0" stroke="#FFF" stroke-linejoin="round" stroke-width="2.5"/>
  <g fill="none" stroke="#FFF">
   <g stroke-width="2.5">
    <path d="m32.196 20.42h10.968"/>
    <path d="m38.786 17.222 4.3782 3.1974"/>
    <path d="m38.786 23.617 4.3782-3.1974"/>
   </g>
   <path transform="translate(11.932 36.384)" x="36.669746" y="-26.236906" width="24.556803" height="19.781626" rx="2.6298788" ry="1.8608745" d="m39.3-26.237h19.297c1.457 0 2.6299 0.82995 2.6299 1.8609v16.06c0 1.0309-1.1729 1.8609-2.6299 1.8609h-19.297c-1.457 0-2.6299-0.82995-2.6299-1.8609v-16.06c0-1.0309 1.1729-1.8609 2.6299-1.8609z" clip-path="url(#clipPath4029)" stroke-linejoin="round" stroke-width="2.2"/>
   <path transform="translate(9.373 33.58)" x="36.669746" y="-26.236906" width="24.556803" height="19.781626" rx="2.6298788" ry="1.8608745" d="m39.3-26.237h19.297c1.457 0 2.6299 0.82995 2.6299 1.8609v16.06c0 1.0309-1.1729 1.8609-2.6299 1.8609h-19.297c-1.457 0-2.6299-0.82995-2.6299-1.8609v-16.06c0-1.0309 1.1729-1.8609 2.6299-1.8609z" clip-path="url(#clipath_lpe_path-effect4041)" stroke-linejoin="round" stroke-width="2.2"/>
  </g>
  <g stroke="#FFF" fill="#FFF" stroke-linejoin="round" stroke-width=".4">
   <circle cx="58.162" cy="23.734" r=".83907"/>
   <circle cx="60.775" cy="25.24" r=".83907"/>
   <circle cx="55.963" cy="19.483" r=".83907"/>
   <circle cx="62.199" cy="19.214" r=".83907"/>
   <circle cx="62.192" cy="22.362" r=".83907"/>
   <circle cx="65.747" cy="20.019" r=".83907"/>
   <circle cx="63.677" cy="26.261" r=".83907"/>
   <circle cx="69.18" cy="20.693" r=".83907"/>
   <circle cx="65.269" cy="23.672" r=".83907"/>
   <circle cx="60.518" cy="28.554" r=".83907"/>
   <circle cx="59.027" cy="21.036" r=".83907"/>
   <circle cx="64.292" cy="29.376" r=".83907"/>
   <circle cx="67.426" cy="26.873" r=".83907"/>
   <circle cx="65.394" cy="17.143" r=".83907"/>
   <circle cx="57.749" cy="27.548" r=".83907"/>
   <circle cx="68.485" cy="23.954" r=".83907"/>
   <circle cx="55.337" cy="25.168" r=".83907"/>
   <circle cx="67.534" cy="29.703" r=".83907"/>
   <circle cx="59.014" cy="17.843" r=".83907"/>
   <circle cx="71.157" cy="25.59" r=".83907"/>
   <circle cx="72.156" cy="22.54" r=".83907"/>
   <circle cx="61.961" cy="16.282" r=".83907"/>
   <circle cx="68.692" cy="17.591" r=".83907"/>
   <circle cx="71.675" cy="19.311" r=".83907"/>
   <circle cx="55.183" cy="22.463" r=".83907"/>
   <circle cx="70.672" cy="28.359" r=".83907"/>
  </g>
  <path x="51.233109" y="12.643257" width="24.556803" height="19.781626" rx="2.6298788" ry="1.8608745" d="m53.863 12.643h19.297c1.457 0 2.6299 0.82995 2.6299 1.8609v16.06c0 1.0309-1.1729 1.8609-2.6299 1.8609h-19.297c-1.457 0-2.6299-0.82995-2.6299-1.8609v-16.06c0-1.0309 1.1729-1.8609 2.6299-1.8609z" fill="none" stroke="#FFF" stroke-linejoin="round" stroke-width="2.2"/>
 </g>
</svg>
