<?xml version="1.0" encoding="UTF-8"?>

<svg width="54mm" height="40.6mm" version="1.1" viewBox="0 0 54 40.6" xmlns="http://www.w3.org/2000/svg">
 <g stroke="#000" stroke-linecap="round" stroke-linejoin="round">
  <path transform="matrix(.70175 0 0 .70175 2.7492 -11.058)" d="m51.011 31.181h-12.952c-3.1644 2e-3 -11.317 21.586-3.8145 32.241 0.88052 1.2504 2.0052 3.1858 3.3218 3.2471h13.446m0.0013-35.488h12.952c3.1644 2e-3 11.317 21.586 3.8145 32.241-0.88052 1.2504-2.0052 3.1858-3.3218 3.2471h-13.446" fill="none" stroke-width="4.275"/>
  <path d="m32.757 10.628a5.7906 5.7906 0 0 1 5.7906-5.7906 5.7906 5.7906 0 0 1 5.7906 5.7906" fill-opacity="0" stroke-width="3"/>
  <path transform="matrix(.4119 0 0 .4119 -12.055 1.9515)" d="m51.011 31.181h-12.952c-3.1644 2e-3 -11.317 21.586-3.8145 32.241 0.88052 1.2504 2.0052 3.1858 3.3218 3.2471h13.446m0.0013-35.488h12.952c3.1644 2e-3 11.317 21.586 3.8145 32.241-0.88052 1.2504-2.0052 3.1858-3.3218 3.2471h-13.446" fill="none" stroke-width="3.6417"/>
  <path d="m5.5581 14.588a3.3989 3.3989 0 0 1 3.3989-3.3989 3.3989 3.3989 0 0 1 3.3989 3.3989" fill-opacity="0" stroke-width="1.5"/>
  <g fill="none" stroke-width="1.5">
   <path d="m8.9894 8.5531v-7.7633"/>
   <path d="m6.6984 4.8794 2.291-4.0897"/>
   <path d="m11.28 4.8794-2.291-4.0897"/>
   <path d="m8.9894 32.011v7.7633"/>
   <path d="m6.6984 35.685 2.291 4.0897"/>
   <path d="m11.28 35.685-2.291 4.0897"/>
  </g>
 </g>
</svg>
