<?xml version="1.0" encoding="UTF-8"?>

<svg width="77mm" height="34mm" version="1.1" viewBox="0 0 77 34" xmlns="http://www.w3.org/2000/svg">
 <defs>
  <clipPath id="clipPath4029">
   <rect x="39.302" y="-23.741" width="24.557" height="19.782" rx="2.6299" ry="1.8609" d="m 41.931442,-23.740818 h 19.297045 c 1.456953,0 2.629879,0.82995 2.629879,1.860875 v 16.0598762 c 0,1.0309245 -1.172926,1.8608745 -2.629879,1.8608745 H 41.931442 c -1.456953,0 -2.629879,-0.82995 -2.629879,-1.8608745 V -21.879943 c 0,-1.030925 1.172926,-1.860875 2.629879,-1.860875 z" display="none" fill="none" stroke="#010005" stroke-linecap="round" stroke-linejoin="round" stroke-width="2.2"/>
   <path class="powerclip" d="m30.57-32.337h36.757v31.982h-36.757zm11.362 8.5961c-1.457 0-2.6299 0.82995-2.6299 1.8609v16.06c0 1.0309 1.1729 1.8609 2.6299 1.8609h19.297c1.457 0 2.6299-0.82995 2.6299-1.8609v-16.06c0-1.0309-1.1729-1.8609-2.6299-1.8609z" fill="none" stroke="#010005" stroke-linecap="round" stroke-linejoin="round" stroke-width="2.2"/>
  </clipPath>
  <clipPath id="clipath_lpe_path-effect4041">
   <rect x="39.302" y="-23.741" width="24.557" height="19.782" rx="2.6299" ry="1.8609" d="m 41.931442,-23.740818 h 19.297045 c 1.456953,0 2.629879,0.82995 2.629879,1.860875 v 16.0598762 c 0,1.0309245 -1.172926,1.8608745 -2.629879,1.8608745 H 41.931442 c -1.456953,0 -2.629879,-0.82995 -2.629879,-1.8608745 V -21.879943 c 0,-1.030925 1.172926,-1.860875 2.629879,-1.860875 z" display="none" fill="none" stroke="#010005" stroke-linecap="round" stroke-linejoin="round" stroke-width="2.2"/>
   <path class="powerclip" d="m30.57-32.337h36.757v31.982h-36.757zm11.362 8.5961c-1.457 0-2.6299 0.82995-2.6299 1.8609v16.06c0 1.0309 1.1729 1.8609 2.6299 1.8609h19.297c1.457 0 2.6299-0.82995 2.6299-1.8609v-16.06c0-1.0309-1.1729-1.8609-2.6299-1.8609z" fill="none" stroke="#010005" stroke-linecap="round" stroke-linejoin="round" stroke-width="2.2"/>
  </clipPath>
 </defs>
 <g stroke-linecap="round">
  <path transform="matrix(.70175 0 0 .70175 25.919 -14.331)" d="m51.011 31.181h-12.952c-3.1644 2e-3 -11.317 21.586-3.8145 32.241 0.88052 1.2504 2.0052 3.1858 3.3218 3.2471h13.446m0.0013-35.488h12.952c3.1644 2e-3 11.317 21.586 3.8145 32.241-0.88052 1.2504-2.0052 3.1858-3.3218 3.2471h-13.446" fill="none" stroke="#FFF" stroke-linejoin="round" stroke-width="3.5625"/>
  <path d="m55.926 7.1978a5.7906 5.7906 0 0 1 5.7906-5.7906 5.7906 5.7906 0 0 1 5.7906 5.7906" fill-opacity="0" stroke="#FFF" stroke-linejoin="round" stroke-width="2.5"/>
  <g fill="none" stroke="#FFF">
   <g stroke-width="2.5">
    <path d="m33.87 20.42h10.968"/>
    <path d="m40.46 17.222 4.3782 3.1974"/>
    <path d="m40.46 23.617 4.3782-3.1974"/>
   </g>
   <path transform="translate(-32.883 36.488)" x="36.669746" y="-26.236906" width="24.556803" height="19.781626" rx="2.6298788" ry="1.8608745" d="m39.3-26.237h19.297c1.457 0 2.6299 0.82995 2.6299 1.8609v16.06c0 1.0309-1.1729 1.8609-2.6299 1.8609h-19.297c-1.457 0-2.6299-0.82995-2.6299-1.8609v-16.06c0-1.0309 1.1729-1.8609 2.6299-1.8609z" clip-path="url(#clipPath4029)" stroke-linejoin="round" stroke-width="2.2"/>
   <path transform="translate(-35.442 33.684)" x="36.669746" y="-26.236906" width="24.556803" height="19.781626" rx="2.6298788" ry="1.8608745" d="m39.3-26.237h19.297c1.457 0 2.6299 0.82995 2.6299 1.8609v16.06c0 1.0309-1.1729 1.8609-2.6299 1.8609h-19.297c-1.457 0-2.6299-0.82995-2.6299-1.8609v-16.06c0-1.0309 1.1729-1.8609 2.6299-1.8609z" clip-path="url(#clipath_lpe_path-effect4041)" stroke-linejoin="round" stroke-width="2.2"/>
  </g>
  <g stroke="#FFF" fill="#FFF" stroke-linejoin="round" stroke-width=".4">
   <circle cx="13.347" cy="23.838" r=".83907"/>
   <circle cx="15.96" cy="25.344" r=".83907"/>
   <circle cx="11.148" cy="19.587" r=".83907"/>
   <circle cx="17.384" cy="19.319" r=".83907"/>
   <circle cx="17.377" cy="22.467" r=".83907"/>
   <circle cx="20.932" cy="20.123" r=".83907"/>
   <circle cx="18.862" cy="26.366" r=".83907"/>
   <circle cx="24.365" cy="20.798" r=".83907"/>
   <circle cx="20.454" cy="23.776" r=".83907"/>
   <circle cx="15.703" cy="28.659" r=".83907"/>
   <circle cx="14.212" cy="21.14" r=".83907"/>
   <circle cx="19.477" cy="29.481" r=".83907"/>
   <circle cx="22.611" cy="26.977" r=".83907"/>
   <circle cx="20.579" cy="17.247" r=".83907"/>
   <circle cx="12.934" cy="27.653" r=".83907"/>
   <circle cx="23.67" cy="24.058" r=".83907"/>
   <circle cx="10.522" cy="25.272" r=".83907"/>
   <circle cx="22.719" cy="29.808" r=".83907"/>
   <circle cx="14.199" cy="17.947" r=".83907"/>
   <circle cx="26.342" cy="25.695" r=".83907"/>
   <circle cx="27.341" cy="22.645" r=".83907"/>
   <circle cx="17.146" cy="16.386" r=".83907"/>
   <circle cx="23.877" cy="17.695" r=".83907"/>
   <circle cx="26.86" cy="19.415" r=".83907"/>
   <circle cx="10.368" cy="22.567" r=".83907"/>
   <circle cx="25.857" cy="28.463" r=".83907"/>
  </g>
  <path x="6.4182401" y="12.747657" width="24.556803" height="19.781626" rx="2.6298788" ry="1.8608745" d="m9.0481 12.748h19.297c1.457 0 2.6299 0.82995 2.6299 1.8609v16.06c0 1.0309-1.1729 1.8609-2.6299 1.8609h-19.297c-1.457 0-2.6299-0.82995-2.6299-1.8609v-16.06c0-1.0309 1.1729-1.8609 2.6299-1.8609z" fill="none" stroke="#FFF" stroke-linejoin="round" stroke-width="2.2"/>
 </g>
</svg>
