<?xml version="1.0" encoding="UTF-8"?>

<svg width="74mm" height="34mm" version="1.1" viewBox="0 0 74 34" xmlns="http://www.w3.org/2000/svg">
 <g stroke="#000" stroke-linecap="round">
  <g fill="none">
   <g>
    <path d="m8.4606 11.618v15.403" stroke-width="2"/>
    <g stroke-width="2.5">
     <path d="m55.946 8.0154c-4.4756 1.8057-0.52167 11.259-5.8098 12.236"/>
     <path d="m55.946 32.553c-4.4756-1.8057-0.52167-11.259-5.8098-12.236"/>
     <path d="m66.625 8.0154c4.4756 1.8057 0.52167 11.259 5.8098 12.236"/>
     <path d="m66.625 32.553c4.4756-1.8057 0.52167-11.259 5.8098-12.236"/>
    </g>
   </g>
   <path class="UnoptimicedTransforms" transform="matrix(.70175 0 0 .70175 -20.283 -14.292)" d="m51.011 31.181h-12.952c-3.1644 2e-3 -11.317 21.586-3.8145 32.241 0.88052 1.2504 2.0052 3.1858 3.3218 3.2471h13.446m0.0013-35.488h12.952c3.1644 2e-3 11.317 21.586 3.8145 32.241-0.88052 1.2504-2.0052 3.1858-3.3218 3.2471h-13.446" stroke-linejoin="round" stroke-width="3.5625"/>
  </g>
  <path d="m9.7249 7.2376a5.7906 5.7906 0 0 1 5.7906-5.7906 5.7906 5.7906 0 0 1 5.7906 5.7906" fill-opacity="0" stroke-linejoin="round" stroke-width="2.5"/>
  <g fill="none">
   <g stroke-width="2.5">
    <path d="m33.159 20.246h10.968"/>
    <path d="m39.749 17.049 4.3782 3.1974"/>
    <path d="m39.749 23.443 4.3782-3.1974"/>
   </g>
   <g stroke-width="2">
    <path d="m10.748 15.533-2.2934-3.9314"/>
    <path d="m6.168 15.533 2.2934-3.9314"/>
    <path d="m23.866 27.025h-15.403"/>
    <path d="m19.951 29.313 3.9314-2.2934"/>
    <path d="m19.951 24.733 3.9314 2.2934"/>
   </g>
  </g>
  <g transform="rotate(-45 8.0125 28.412)" fill="none" stroke-width="2">
   <path d="m23.092 27.711h-13.639"/>
   <path d="m19.177 29.999 3.9314-2.2934"/>
   <path d="m19.177 25.419 3.9314 2.2934"/>
  </g>
 </g>
</svg>
